<svg xmlns="http://www.w3.org/2000/svg" width="125" height="126" viewBox="0 0 125 126" fill="none">
<path fill-rule="evenodd" clip-rule="evenodd" d="M60.0738 94.0492V13.5625C60.0627 11.64 59.5456 9.7543 58.5746 8.09501C58.4582 7.86492 58.3356 7.638 58.207 7.41451C58.1991 7.40147 58.1939 7.38844 58.1835 7.37801C56.9716 5.28743 55.2319 3.55178 53.1384 2.34472C51.045 1.13767 48.6713 0.501543 46.2548 0.5C39.2722 0.5 33.5125 5.6937 32.5791 12.4309C31.9432 12.3667 31.3044 12.3345 30.6653 12.3344C19.8343 12.3344 11.0579 21.1262 11.0579 31.9725C11.0579 33.6411 11.2795 35.2524 11.6758 36.796C4.44298 44.7768 0 55.3389 0 66.9648C0 86.2196 12.1139 102.572 29.1009 108.973C29.1374 109.208 29.1504 109.437 29.1973 109.672C30.6966 117.403 36.923 123.626 44.6434 125.115C48.6566 125.916 52.8191 125.461 56.5643 123.811C57.6014 123.363 58.4857 122.623 59.1093 121.681C59.733 120.739 60.069 119.635 60.0765 118.506V94.0492H60.0738ZM64.9236 94.0492V13.5625C64.9347 11.64 65.4518 9.7543 66.4228 8.09501C66.5401 7.86557 66.6627 7.63613 66.793 7.41451L66.8139 7.37801C68.026 5.28705 69.7662 3.55115 71.8601 2.34407C73.954 1.13699 76.3283 0.501086 78.7452 0.5C82.0809 0.503346 85.3027 1.71306 87.8162 3.90589C90.3297 6.09872 91.9652 9.12666 92.4209 12.4309C93.0519 12.3683 93.6907 12.3344 94.3373 12.3344C105.168 12.3344 113.945 21.1262 113.945 31.9725C113.942 33.5999 113.735 35.2205 113.327 36.796C120.557 44.7768 125 55.3389 125 66.9648C125 86.2196 112.886 102.572 95.8991 108.973C95.8626 109.208 95.8496 109.437 95.8027 109.672C94.3034 117.403 88.077 123.626 80.3566 125.115C76.3434 125.916 72.1809 125.461 68.4357 123.811C67.3986 123.363 66.5143 122.623 65.8907 121.681C65.267 120.739 64.931 119.635 64.9236 118.506V94.0492Z" fill="#3092fa"/>
</svg>